<svg viewBox="0 -48 512 512" xmlns="http://www.w3.org/2000/svg"><path d="m107.914062 45.714844h296.175782v363.542968h-296.175782zm0 0" fill="#ea6789"/><path d="m380.085938 45.714844h24v363.542968h-24zm0 0" fill="#c1466b"/><path d="m158.648438 254.378906v107.464844h66.617187v-107.464844c0-2.210937-1.792969-4-4-4h-58.617187c-2.210938 0-4 1.789063-4 4zm0 0" fill="#f0f2dc"/><path d="m148.613281 363.964844v19.460937c0 1.175781.949219 2.125 2.121094 2.125h82.441406c1.175781 0 2.125-.953125 2.125-2.125v-19.460937c0-1.171875-.953125-2.121094-2.125-2.121094h-82.441406c-1.171875 0-2.121094.949219-2.121094 2.121094zm0 0" fill="#8b9cd8"/><path d="m139.058594 387.671875v19.464844c0 1.171875.949218 2.121093 2.121094 2.121093h101.550781c1.171875 0 2.125-.949218 2.125-2.121093v-19.464844c0-1.171875-.953125-2.121094-2.125-2.121094h-101.550781c-1.171876 0-2.121094.949219-2.121094 2.121094zm0 0" fill="#5d78c7"/><path d="m161.996094 107.507812v44.972657h63.269531v-44.972657c0-2.210937-1.792969-4-4-4h-55.269531c-2.210938 0-4 1.789063-4 4zm0 0" fill="#516789"/><path d="m290.082031 107.507812v44.972657h63.269531v-44.972657c0-2.210937-1.789062-4-4-4h-55.269531c-2.207031 0-4 1.789063-4 4zm0 0" fill="#516789"/><path d="m290.082031 254.378906v44.972656h63.269531v-44.972656c0-2.210937-1.789062-4-4-4h-55.269531c-2.207031 0-4 1.789063-4 4zm0 0" fill="#516789"/><g fill="#f0f2dc"><path d="m151.664062 154.480469v17.796875c0 1.105468.894532 2 2 2h76.585938c1.105469 0 2-.894532 2-2v-17.796875c0-1.105469-.894531-2-2-2h-76.585938c-1.105468 0-2 .894531-2 2zm0 0"/><path d="m279.75 154.480469v17.796875c0 1.105468.894531 2 2 2h76.585938c1.105468 0 2-.894532 2-2v-17.796875c0-1.105469-.894532-2-2-2h-76.585938c-1.101562 0-2 .894531-2 2zm0 0"/><path d="m279.75 301.351562v17.796876c0 1.105468.894531 2 2 2h76.585938c1.105468 0 2-.894532 2-2v-17.796876c0-1.105468-.894532-2-2-2h-76.585938c-1.101562 0-2 .894532-2 2zm0 0"/><path d="m88.640625 43.714844v-34.214844c0-1.105469.894531-2 2-2h330.71875c1.105469 0 2 .894531 2 2v34.214844c0 1.105468-.894531 2-2 2h-330.71875c-1.105469 0-2-.894532-2-2zm0 0"/></g><path d="m421.359375 7.5h-25.273437c1.105468 0 2 .894531 2 2v34.214844c0 1.105468-.894532 2-2 2h25.273437c1.105469 0 2-.894532 2-2v-34.214844c0-1.105469-.894531-2-2-2zm0 0" fill="#ccc5a9"/><path d="m504.5 297.027344c0 21.175781-17.164062 38.335937-38.335938 38.335937-21.171874 0-38.335937-17.160156-38.335937-38.335937 0-21.171875 17.164063-38.335938 38.335937-38.335938 21.171876 0 38.335938 17.164063 38.335938 38.335938zm0 0" fill="#8fc264"/><path d="m466.164062 258.695312c-4.144531 0-8.132812.664063-11.871093 1.882813 15.359375 4.996094 26.464843 19.425781 26.464843 36.453125s-11.105468 31.453125-26.464843 36.453125c3.738281 1.214844 7.726562 1.882813 11.871093 1.882813 21.171876 0 38.335938-17.164063 38.335938-38.335938s-17.164062-38.335938-38.335938-38.335938zm0 0" fill="#649b45"/><path d="m84.171875 297.027344c0 21.175781-17.164063 38.335937-38.335937 38.335937-21.171876 0-38.335938-17.160156-38.335938-38.335937 0-21.171875 17.164062-38.335938 38.335938-38.335938 21.171874 0 38.335937 17.164063 38.335937 38.335938zm0 0" fill="#8fc264"/><path d="m45.835938 258.695312c-4.144532 0-8.132813.664063-11.871094 1.882813 15.359375 4.996094 26.464844 19.425781 26.464844 36.453125s-11.105469 31.453125-26.464844 36.453125c3.738281 1.214844 7.726562 1.882813 11.871094 1.882813 21.171874 0 38.335937-17.164063 38.335937-38.335938s-17.164063-38.335938-38.335937-38.335938zm0 0" fill="#649b45"/><path d="m177.332031 298.679688c-4.140625 0-7.5 3.359374-7.5 7.5v4c0 4.140624 3.359375 7.5 7.5 7.5 4.144531 0 7.5-3.359376 7.5-7.5v-4c0-4.140626-3.355469-7.5-7.5-7.5zm0 0"/><path d="m221.265625 96.007812h-55.269531c-6.34375 0-11.5 5.15625-11.5 11.5v37.472657h-.832032c-5.238281 0-9.5 4.261719-9.5 9.5v17.796875c0 5.238281 4.261719 9.5 9.5 9.5h76.585938c5.238281 0 9.5-4.261719 9.5-9.5v-17.796875c0-4.371094-2.964844-8.058594-6.984375-9.164063v-37.808594c0-6.34375-5.160156-11.5-11.5-11.5zm-51.769531 15h48.269531v33.972657h-48.269531zm55.253906 55.769532h-65.585938v-6.796875h65.585938zm0 0"/><path d="m349.351562 96.007812h-55.269531c-6.339843 0-11.5 5.15625-11.5 11.5v37.472657h-.832031c-5.238281 0-9.5 4.261719-9.5 9.5v17.796875c0 5.238281 4.261719 9.5 9.5 9.5h76.585938c5.238281 0 9.5-4.261719 9.5-9.5v-17.796875c0-4.371094-2.960938-8.058594-6.984376-9.164063v-37.808594c0-6.34375-5.160156-11.5-11.5-11.5zm-51.769531 15h48.269531v33.972657h-48.269531zm55.253907 55.769532h-65.585938v-6.796875h65.585938zm0 0"/><path d="m272.25 319.148438c0 5.238281 4.261719 9.5 9.5 9.5h76.585938c5.238281 0 9.5-4.261719 9.5-9.5v-17.796876c0-4.367187-2.960938-8.054687-6.984376-9.160156v-37.8125c0-6.339844-5.15625-11.5-11.5-11.5h-55.269531c-6.339843 0-11.5 5.160156-11.5 11.5v37.472656h-.832031c-5.238281 0-9.5 4.261719-9.5 9.5zm80.585938-5.5h-65.585938v-6.796876h65.585938zm-55.253907-55.769532h48.269531v33.972656h-48.269531zm0 0"/><path d="m512 297.027344c0-25.273438-20.5625-45.832032-45.835938-45.832032-3.957031 0-7.886718.503907-11.683593 1.503907-4.007813 1.054687-6.398438 5.152343-5.347657 9.160156 1.054688 4.003906 5.15625 6.398437 9.160157 5.34375 2.554687-.667969 5.199219-1.007813 7.871093-1.007813 17 0 30.835938 13.832032 30.835938 30.832032 0 14.417968-9.945312 26.554687-23.335938 29.914062v-16.433594c0-4.140624-3.359374-7.5-7.5-7.5-4.144531 0-7.5 3.359376-7.5 7.5v16.433594c-13.390624-3.355468-23.335937-15.496094-23.335937-29.910156 0-5.414062 1.417969-10.738281 4.109375-15.394531 2.070312-3.585938.84375-8.171875-2.746094-10.246094-3.585937-2.070313-8.171875-.839844-10.246094 2.746094-4.003906 6.933593-6.117187 14.851562-6.117187 22.894531 0 22.71875 16.617187 41.632812 38.335937 45.222656v59.503906h-47.078124v-348.542968h9.773437c5.238281 0 9.5-4.261719 9.5-9.5v-34.214844c0-5.238281-4.261719-9.5-9.5-9.5h-330.71875c-5.238281 0-9.5 4.261719-9.5 9.5v34.214844c0 5.238281 4.261719 9.5 9.5 9.5h9.773437v98.5c0 4.144531 3.355469 7.5 7.5 7.5 4.140626 0 7.5-3.355469 7.5-7.5v-98.5h56.414063c4.144531 0 7.5-3.355469 7.5-7.5 0-4.140625-3.355469-7.5-7.5-7.5h-75.6875v-23.214844h319.71875v23.214844h-214.03125c-4.144531 0-7.5 3.359375-7.5 7.5 0 4.144531 3.355469 7.5 7.5 7.5h194.757813v348.542968h-144.230469v-14.085937c0-5.28125-4.28125-9.582031-9.554688-9.621094v-14.085937c0-5.304688-4.316406-9.621094-9.625-9.621094h-.410156v-99.964844c0-6.34375-5.160156-11.5-11.5-11.5h-58.617187c-6.339844 0-11.5 5.15625-11.5 11.5v99.964844h-.414063c-5.304687 0-9.621094 4.316406-9.621094 9.621094v14.085937c-5.277343.039063-9.554687 4.339844-9.554687 9.621094v14.085937h-16.144532v-220.042968c0-4.140625-3.359374-7.5-7.5-7.5-4.144531 0-7.5 3.359375-7.5 7.5v220.042968h-47.078124v-59.503906c21.71875-3.59375 38.335937-22.503906 38.335937-45.222656 0-25.273438-20.5625-45.835938-45.835937-45.835938-3.988282 0-7.953126.515626-11.777344 1.527344-4.003906 1.0625-6.390625 5.167969-5.328125 9.171875 1.0625 4.003907 5.167969 6.390625 9.171875 5.328125 2.574218-.683594 5.242187-1.027344 7.933594-1.027344 17.003906 0 30.835937 13.832032 30.835937 30.835938 0 14.414062-9.945313 26.554688-23.335937 29.910156v-16.433594c0-4.140624-3.355469-7.5-7.5-7.5-4.140626 0-7.5 3.359376-7.5 7.5v16.433594c-13.390626-3.355468-23.335938-15.496094-23.335938-29.914062 0-5.414063 1.421875-10.734375 4.109375-15.390625 2.070313-3.585938.839844-8.171875-2.746094-10.246094-3.589843-2.070313-8.175781-.839844-10.246093 2.746094-4.003907 6.933593-6.117188 14.847656-6.117188 22.890625 0 22.722656 16.617188 41.632812 38.335938 45.222656v59.507812h-8.746094c-4.140625 0-7.5 3.355469-7.5 7.5 0 4.140626 3.359375 7.5 7.5 7.5h452.820312c4.140625 0 7.5-3.359374 7.5-7.5 0-4.144531-3.359375-7.5-7.5-7.5h-8.746094v-59.507812c21.71875-3.589844 38.335938-22.5 38.335938-45.222656zm-355.890625 72.316406h71.691406v8.707031h-71.6875v-8.707031zm10.039063-111.464844h51.613281v96.464844h-51.613281zm-19.589844 143.878906v-8.707031h90.796875v8.707031zm0 0"/></svg>