<svg height="512" viewBox="0 0 512 512" width="512" xmlns="http://www.w3.org/2000/svg"><g id="_23_Band_aid" data-name="23 Band aid"><g id="Band_aid" data-name="Band aid"><g id="Band_aid-2" data-name="Band aid"><path d="m489.76 57.35-489.52 316.8c-.15 2.6-.24 5.22-.24 7.85 0 71.68 58.32 130 130 130a129.12 129.12 0 0 0 91.92-38.08l252-252a129.9 129.9 0 0 0 15.84-164.57z" fill="#9fe2ff"/><path d="m108 431.5a129.12 129.12 0 0 0 91.92-38.08l252-252a129 129 0 0 0 37.84-84.07 129.94 129.94 0 0 0 -199.68-19.27l-252 252a129 129 0 0 0 -37.84 84.07 130 130 0 0 0 107.76 57.35z" fill="#c5eeff"/><path d="m379.05 214.3-245.73 30.07a37.49 37.49 0 0 0 0 53l81.31 81.31a37.54 37.54 0 0 0 53 0l111.37-111.37a37.49 37.49 0 0 0 0-53z" fill="#f6efea"/><path d="m214.63 325.68a37.54 37.54 0 0 0 53 0l111.37-111.37-81.28-81.31a37.5 37.5 0 0 0 -53 0l-111.4 111.33z" fill="#fff4f4"/><path d="m290 254.71-76.5 26.29v10a7.5 7.5 0 0 0 7.5 7.5h52.5a25 25 0 0 0 16.5-43.79z" fill="#fa1e4f"/><path d="m290 256q0-.65 0-1.29a24.91 24.91 0 0 0 -16.47-6.21h-10v-10a24.9 24.9 0 0 0 -.68-5.77l-49.35 35.13v13.14h51.5a25 25 0 0 0 25-25z" fill="#fb4b72"/><path d="m238.5 213.5a25 25 0 0 0 -25 25v29.36a40 40 0 0 0 49.32-35.13 25 25 0 0 0 -24.32-19.23z" fill="#ff9098"/><g fill="#2d8fdf"><circle cx="80.5" cy="434.5" r="7.5"/><circle cx="115.5" cy="399.5" r="7.5"/><circle cx="80.5" cy="364.5" r="7.5"/><circle cx="150.5" cy="364.5" r="7.5"/><circle cx="80.5" cy="399.5" r="7.5"/><circle cx="45.5" cy="364.5" r="7.5"/><circle cx="45.5" cy="399.5" r="7.5"/><circle cx="115.5" cy="434.5" r="7.5"/><circle cx="185.5" cy="399.5" r="7.5"/><circle cx="150.5" cy="399.5" r="7.5"/><circle cx="185.5" cy="434.5" r="7.5"/><circle cx="150.5" cy="434.5" r="7.5"/><circle cx="115.5" cy="469.5" r="7.5"/><circle cx="150.5" cy="469.5" r="7.5"/><circle cx="115.5" cy="364.5" r="7.5"/></g><circle cx="80.5" cy="329.5" fill="#ffe477" r="7.5"/><g fill="#2d8fdf"><circle cx="115.5" cy="329.5" r="7.5"/><circle cx="367.5" cy="147.5" r="7.5"/><circle cx="402.5" cy="112.5" r="7.5"/><circle cx="367.5" cy="77.5" r="7.5"/><circle cx="437.5" cy="77.5" r="7.5"/><circle cx="367.5" cy="112.5" r="7.5"/><circle cx="332.5" cy="77.5" r="7.5"/><circle cx="332.5" cy="112.5" r="7.5"/><circle cx="402.5" cy="147.5" r="7.5"/><circle cx="472.5" cy="112.5" r="7.5"/><circle cx="437.5" cy="112.5" r="7.5"/><circle cx="472.5" cy="147.5" r="7.5"/><circle cx="437.5" cy="147.5" r="7.5"/><circle cx="402.5" cy="182.5" r="7.5"/><circle cx="437.5" cy="182.5" r="7.5"/></g><circle cx="402.5" cy="77.5" fill="#ffe477" r="7.5"/><circle cx="367.5" cy="42.5" fill="#ffe477" r="7.5"/><circle cx="402.5" cy="42.5" fill="#2d8fdf" r="7.5"/></g></g></g></svg>