<svg id="Layer_2" height="512" viewBox="0 0 64 64" width="512" xmlns="http://www.w3.org/2000/svg" xmlns:xlink="http://www.w3.org/1999/xlink" data-name="Layer 2"><linearGradient id="linear-gradient" gradientUnits="userSpaceOnUse" x1="36.47" x2="6.04" y1="6.16" y2="44.3"><stop offset="0" stop-color="#ffc033"/><stop offset="1" stop-color="#ef8e2e"/></linearGradient><linearGradient id="linear-gradient-2" gradientUnits="userSpaceOnUse" x1="47.25" x2="19.39" y1="8.77" y2="55.91"><stop offset="0" stop-color="#ce7f20"/><stop offset="1" stop-color="#b2500d"/></linearGradient><linearGradient id="linear-gradient-3" x1="44.5" x2="44.5" xlink:href="#linear-gradient" y1="7.76" y2="61"/><linearGradient id="linear-gradient-4" gradientUnits="userSpaceOnUse" x1="42.5" x2="52.99" y1="8.77" y2="8.77"><stop offset="0" stop-color="#002237"/><stop offset="1" stop-color="#003352"/></linearGradient><linearGradient id="linear-gradient-5" x1="39.71" x2="50.29" xlink:href="#linear-gradient-4" y1="40" y2="40"/><path d="m43.37 8.88a1.06 1.06 0 0 0 -.92-.57l-8.93.17a8.9 8.9 0 0 0 -6.2 2.63l-22.47 22.47a5 5 0 0 0 0 7.07c6.56 6.41 6.26 6.59 7 6.57a1 1 0 0 0 .72-.36l30.66-36.86a1 1 0 0 0 .14-1.12z" fill="url(#linear-gradient)"/><path d="m41.3 8.87-8.6 2.47a9 9 0 0 0 -5.3 4.15l-15.89 27.51a5 5 0 0 0 1.83 6.83l16.45 9.5c1.21.67 3.21 1.18 3.47-.14l9.3-49.19a1 1 0 0 0 -1.26-1.13z" fill="url(#linear-gradient-2)"/><path d="m56.48 18-8.38-8.71a5 5 0 0 0 -7.2 0l-8.38 8.71a9 9 0 0 0 -2.52 6.23v31.77a5 5 0 0 0 5 5h19a5 5 0 0 0 5-5v-31.77a9 9 0 0 0 -2.52-6.23z" fill="url(#linear-gradient-3)"/><path d="m51 2.88c0 .06-.77 5.68-5.21 8.27a2 2 0 1 0 .66 1.92c5.55-2.96 6.55-9.63 6.55-9.95z" fill="url(#linear-gradient-4)"/><path d="m46.29 39h-.29v-4h.29a2 2 0 0 1 2 2h2a4 4 0 0 0 -4-4h-.29v-2.43h-2v2.43h-.29a4 4 0 0 0 0 8h.29v4h-.29a2 2 0 0 1 -2-2h-2a4 4 0 0 0 4 4h.29v2.43h2v-2.43h.29a4 4 0 0 0 0-8zm-2.58 0a2 2 0 0 1 0-4h.29v4zm2.58 6h-.29v-4h.29a2 2 0 0 1 0 4z" fill="url(#linear-gradient-5)"/></svg>