<svg id="Layer_1" enable-background="new 0 0 504.5 504.5" height="512" viewBox="0 0 504.5 504.5" width="512" xmlns="http://www.w3.org/2000/svg"><g><g><path d="m184.157 500.75c-60.612-.003-114.147-22.28-150.743-62.728-19.379-21.418-30.794-47.414-33.014-75.176-2.078-25.992 3.968-52.971 17.484-78.02 11.839-21.942 27.576-38.783 42.796-55.07 13.816-14.786 26.867-28.752 34.31-44.31 5.243-10.959 5.221-19.53-.074-29.584-1.437-2.729-3.25-5.708-5.169-8.861-7.609-12.504-18.029-29.628-17.509-52.96 1.286-57.706 59.446-87.099 112.94-89.988 3.72-.201 7.505-.302 11.249-.302 49.553 0 99.953 17.718 141.916 49.889 42.659 32.704 74.496 79.04 89.648 130.47 31.722 107.675-5.854 214.749-95.728 272.783-43.162 27.87-97.144 43.857-148.095 43.857-.007 0-.005 0-.011 0z" fill="#ebf9ff"/><path d="m187.038 38.164c-34.817 1.88-79.642 18.849-80.484 56.634-.396 17.785 10.962 30.392 18.763 45.203 10.471 19.88 10.361 39.86.664 60.131-18.612 38.902-57.479 63.091-77.856 100.856-20.692 38.349-18.927 81.321 10.797 114.174 64.739 71.554 180.112 61.209 254.66 13.073 77.651-50.141 108.743-141.945 81.472-234.513-28.6-97.074-119.656-160.33-208.016-155.558z" fill="#91edff"/><path d="m395.052 193.722c-28.598-97.075-119.654-160.33-208.014-155.558-1.766.095-3.559.232-5.369.406 80.1 6.863 157.441 67.091 183.384 155.152 27.271 92.568-3.821 184.372-81.472 234.513-32.795 21.176-73.491 35.033-114.301 37.827 50.326 3.582 103.445-11.445 144.301-37.827 77.651-50.141 108.742-141.945 81.471-234.513z" fill="#79e7fc"/></g><g fill="#5ec7db"><path d="m114.75 366.363c0-4.142-3.358-7.5-7.5-7.5h-20.5c-4.142 0-7.5 3.358-7.5 7.5s3.358 7.5 7.5 7.5h20.5c4.142 0 7.5-3.358 7.5-7.5z"/><path d="m209.75 298.965h-20.5c-4.142 0-7.5 3.358-7.5 7.5s3.358 7.5 7.5 7.5h20.5c4.142 0 7.5-3.358 7.5-7.5s-3.358-7.5-7.5-7.5z"/><path d="m319.75 333.359h-20.5c-4.142 0-7.5 3.358-7.5 7.5s3.358 7.5 7.5 7.5h20.5c4.142 0 7.5-3.358 7.5-7.5s-3.358-7.5-7.5-7.5z"/><path d="m162.5 242.863h20.5c4.142 0 7.5-3.358 7.5-7.5s-3.358-7.5-7.5-7.5h-20.5c-4.142 0-7.5 3.358-7.5 7.5s3.358 7.5 7.5 7.5z"/><path d="m178.654 390.767h-65.5c-4.142 0-7.5 3.358-7.5 7.5s3.358 7.5 7.5 7.5h65.5c4.142 0 7.5-3.358 7.5-7.5s-3.358-7.5-7.5-7.5z"/><path d="m285.75 112.732h-65.5c-4.142 0-7.5 3.358-7.5 7.5s3.358 7.5 7.5 7.5h65.5c4.142 0 7.5-3.358 7.5-7.5s-3.358-7.5-7.5-7.5z"/></g><g><path d="m495.968 260.25h-25.532l-7.269-10-7.731 10h-135.968v-36.387h176.5z" fill="#7191f0"/><g><path d="m455.436 260.25v-64.152c0-13.527 11.005-24.532 24.532-24.532s24.532 11.005 24.532 24.532v112.681c0 4.142-3.358 7.5-7.5 7.5s-7.5-3.358-7.5-7.5v-112.681c0-5.256-4.276-9.532-9.532-9.532s-9.532 4.276-9.532 9.532v64.152z" fill="#d7effa"/></g></g></g></svg>