<svg id="Capa_1" enable-background="new 0 0 512 512" height="512" viewBox="0 0 512 512" width="512" xmlns="http://www.w3.org/2000/svg"><g><g><path d="m202.475 512c-95.479 0-173.156-77.678-173.156-173.156 0-38.84 27.258-106.82 81.016-202.051 39.361-69.73 79.272-129.535 79.671-130.132 2.784-4.162 7.461-6.661 12.469-6.661s9.685 2.499 12.469 6.661c.398.597 40.31 60.402 79.672 130.132 53.758 95.23 81.016 163.211 81.016 202.051-.001 95.478-77.679 173.156-173.157 173.156z" fill="#78c8f0"/></g><path d="m375.631 338.844c0-38.84-27.258-106.82-81.016-202.051-39.362-69.73-79.273-129.535-79.672-130.132-2.784-4.162-7.461-6.661-12.468-6.661v512c95.478 0 173.156-77.678 173.156-173.156z" fill="#65a8fb"/><path d="m441.205 313.209c-19.82-35.11-39.312-64.321-40.133-65.548-2.784-4.162-7.461-6.661-12.469-6.661s-9.685 2.499-12.469 6.661c-.82 1.227-20.312 30.438-40.133 65.548-27.909 49.441-41.477 83.693-41.477 104.713 0 51.875 42.203 94.078 94.078 94.078s94.078-42.203 94.078-94.078c.002-21.02-13.566-55.272-41.475-104.713z" fill="#cef6f6"/><path d="m482.682 417.922c0-21.02-13.567-55.271-41.477-104.713-19.82-35.11-39.312-64.321-40.133-65.548-2.784-4.162-7.461-6.661-12.469-6.661v271c51.876 0 94.079-42.203 94.079-94.078z" fill="#a6efed"/></g></svg>