<svg id="Layer_1" data-name="Layer 1" xmlns="http://www.w3.org/2000/svg" viewBox="0 0 18 17.5"><defs><style>.cls-1{fill:#fff;}.cls-2{fill:none;stroke:#fff;stroke-miterlimit:10;}</style></defs><path class="cls-1" d="M650.72,848.25h-7.44A3.28,3.28,0,0,1,640,845v-4.6a3.28,3.28,0,0,1,1.29-2.61l3.72-2.84a3.3,3.3,0,0,1,4,0l1.18.9v-.71a.55.55,0,0,1,1.1,0v1.81a.57.57,0,0,1-.19.42.54.54,0,0,1-.69,0l-2.06-1.57a2.22,2.22,0,0,0-2.66,0L642,838.63a2.22,2.22,0,0,0-.86,1.74V845a2.19,2.19,0,0,0,2.19,2.19h7.44a2.19,2.19,0,0,0,2.19-2.19v-4.6a2.22,2.22,0,0,0-.85-1.75.55.55,0,0,1-.11-.77.55.55,0,0,1,.77-.1,3.31,3.31,0,0,1,1.28,2.62V845A3.28,3.28,0,0,1,650.72,848.25Zm-4.81-7.7a.68.68,0,1,0,.68.69A.68.68,0,0,0,645.91,840.55Zm2.87.69a.69.69,0,0,1-1.37,0A.69.69,0,0,1,648.78,841.24Zm-2.19,2.19a.68.68,0,0,1-1.36,0A.68.68,0,1,1,646.59,843.43Zm2.19,0a.69.69,0,0,1-1.37,0A.69.69,0,0,1,648.78,843.43Z" transform="translate(-638 -830.75)"/><line class="cls-2" y1="0.5" x2="18" y2="0.5"/></svg>