<svg xmlns="http://www.w3.org/2000/svg" xmlns:xlink="http://www.w3.org/1999/xlink" viewBox="0 0 47.95 36.82"><defs><style>.cls-1{fill:none;}.cls-2{fill:#88603f;}.cls-3{fill:#eeeded;}.cls-4{fill:#e6e6e6;}.cls-5{fill:#666;}.cls-6{fill:#b3b3b3;}.cls-7{fill:#cdcccc;}.cls-8{fill:#4a8bc9;}.cls-9{fill:#fff;}.cls-10{opacity:0.3;}.cls-11{fill:#999;}.cls-12{fill:gray;}.cls-13{fill:url(#New_Pattern_Swatch_2);}.cls-14{fill:#676767;}</style><pattern id="New_Pattern_Swatch_2" data-name="New Pattern Swatch 2" width="90.26" height="90.26" patternTransform="matrix(10.24, 0, 0, -10.24, -2303.2, 4693.34)" patternUnits="userSpaceOnUse" viewBox="0 0 90.26 90.26"><rect class="cls-1" width="90.26" height="90.26"/><path class="cls-1" d="M0,0H90.26V90.26H0Z"/><path class="cls-2" d="M90.26,0H0V90.26H90.26Z"/></pattern></defs><g id="Layer_2" data-name="Layer 2"><g id="Layer_1-2" data-name="Layer 1"><path class="cls-3" d="M45.58,7.76H36.31a2.25,2.25,0,0,1-2.38-2.09,2.17,2.17,0,0,1,1.78-2C35.33,2.12,37.07.94,38.4,1.32a2.51,2.51,0,0,1,4.43,0c1.7-.64,3.43.68,2.94,2.26,3,.22,2.84,4.17-.19,4.17Z"/><path class="cls-3" d="M14,9.9A2.25,2.25,0,0,1,11.65,12H2.38A2.25,2.25,0,0,1,0,9.9a2.15,2.15,0,0,1,1.78-2C1.39,6.35,3.13,5.17,4.46,5.55a2.52,2.52,0,0,1,4.43,0,2.56,2.56,0,0,1,.89-.17,2,2,0,0,1,2.06,2.42A2.23,2.23,0,0,1,14,9.9Z"/><path class="cls-4" d="M3.2,11.77H39.41V23.16H3.2Z"/><path class="cls-5" d="M39.67,10.9H2.91L6.18,5.48H36.41l.25.42.13.23,1.35,2.22.13.23Z"/><path class="cls-6" d="M39.65,11.77H2.93l0-.87H39.62Z"/><path class="cls-4" d="M2.12,23.16H40.39V36.82H2.12Z"/><path class="cls-3" d="M37.57,10.83V20H22.28V10.83l7.65-6.37Z"/><path class="cls-7" d="M35.08,17.41v.43H24.88v-.43h.22V11.66h9.76v5.75Z"/><path class="cls-8" d="M25.1,11.66h9.33v5.75H25.1Z"/><path class="cls-9" d="M28.14,11.56h.32V17.3h-.32Z"/><path class="cls-9" d="M31.17,11.56h.33V17.3h-.33Z"/><path class="cls-9" d="M34.53,17.41H25v-6h9.54Zm-9.21-.22h9V11.66h-9Z"/><path class="cls-9" d="M25,14.37h9.33v.33H25Z"/><g class="cls-10"><path class="cls-9" d="M30.38,11.66l-3.6,5.75h-.56l3.61-5.75Z"/></g><g class="cls-10"><path class="cls-9" d="M29.36,11.66l-3.6,5.75H25.1v-.33l3.39-5.42Z"/></g><g class="cls-10"><path class="cls-9" d="M34.43,11.66V12L31,17.41h-.55l3.6-5.75Z"/></g><g class="cls-10"><path class="cls-9" d="M33.69,11.66l-3.6,5.75h-.86l3.6-5.75Z"/></g><path class="cls-5" d="M41.12,23.16H1.46L5,20H37.6l.39.35.1.09.72.64.1.09.72.64.09.09.72.64.1.09Z"/><path class="cls-4" d="M6,20,2.38,23.16h-.2L5.77,20Z"/><path class="cls-4" d="M7.6,20,4,23.16h-.2L7.4,20Z"/><path class="cls-4" d="M9.23,20,5.65,23.16h-.2L9,20Z"/><path class="cls-4" d="M10.86,20,7.28,23.16h-.2L10.66,20Z"/><path class="cls-4" d="M12.5,20,8.91,23.16h-.2L12.3,20Z"/><path class="cls-4" d="M14.13,20l-3.59,3.15h-.2L13.93,20Z"/><path class="cls-4" d="M15.76,20l-3.58,3.15H12L15.56,20Z"/><path class="cls-4" d="M17.39,20l-3.58,3.15h-.2L17.19,20Z"/><path class="cls-4" d="M19,20l-3.59,3.15h-.2L18.83,20Z"/><path class="cls-4" d="M20.66,20l-3.59,3.15h-.2L20.46,20Z"/><path class="cls-4" d="M22.29,20l-3.58,3.15h-.2L22.09,20Z"/><path class="cls-4" d="M23.92,20l-3.58,3.15h-.2L23.72,20Z"/><path class="cls-4" d="M25.56,20,22,23.16h-.2L25.36,20Z"/><path class="cls-4" d="M27.19,20,23.6,23.16h-.2L27,20Z"/><path class="cls-4" d="M28.82,20l-3.58,3.15H25L28.62,20Z"/><path class="cls-4" d="M30.45,20l-3.58,3.15h-.2L30.25,20Z"/><path class="cls-4" d="M32.09,20,28.5,23.16h-.2L31.89,20Z"/><path class="cls-4" d="M33.72,20l-3.59,3.15h-.2L33.52,20Z"/><path class="cls-4" d="M35.35,20l-3.58,3.15h-.2L35.15,20Z"/><path class="cls-4" d="M37,20,33.4,23.16h-.2L36.78,20Z"/><path class="cls-4" d="M38.09,20.5l-3,2.66h-.2L38,20.41Z"/><path class="cls-4" d="M38.91,21.21l-2.22,1.95H36.5l2.31-2Z"/><path class="cls-4" d="M39.72,21.93l-1.39,1.23h-.2l1.5-1.32Z"/><path class="cls-4" d="M40.54,22.65l-.58.51h-.2l.68-.6Z"/><path class="cls-4" d="M1.47,23.16H41.15v.32H1.47Z"/><path class="cls-5" d="M11.77,17.74v.32h-7v-.32h.11V13.62h6.83v4.12Z"/><path class="cls-8" d="M4.83,13.62h6.5v4H4.83Z"/><path class="cls-9" d="M7,13.62h.22v4H7Z"/><path class="cls-9" d="M9.05,13.62h.22v4H9.05Z"/><path class="cls-9" d="M11.33,17.63H4.72V13.51h6.61Zm-6.4-.11h6.29v-3.9H4.93Z"/><path class="cls-9" d="M4.72,15.46h6.5v.22H4.72Z"/><g class="cls-10"><path class="cls-9" d="M8.5,13.62,6,17.63H5.6l2.52-4Z"/></g><g class="cls-10"><path class="cls-9" d="M7.8,13.62l-2.52,4H4.83v-.24l2.36-3.77Z"/></g><g class="cls-10"><path class="cls-9" d="M11.33,13.62v.23L9,17.63H8.57l2.52-4Z"/></g><g class="cls-10"><path class="cls-9" d="M10.81,13.62l-2.52,4h-.6l2.52-4Z"/></g><path class="cls-11" d="M4.61,17.52h6.94v.32H4.61Z"/><path class="cls-5" d="M20.76,18.39v.32H13.83v-.32h.1V13.07h6.62v5.32Z"/><path class="cls-8" d="M13.93,13.07h6.29v5.1H13.93Z"/><path class="cls-9" d="M15.89,13.07h.21v5.1h-.21Z"/><path class="cls-9" d="M18,13.07h.21v5.1H18Z"/><path class="cls-9" d="M20.22,18.28h-6.5V13h6.5Zm-6.29-.22h6.18V13.18H13.93Z"/><g class="cls-10"><path class="cls-9" d="M17.42,13.07,15,18.17H14.6L17,13.07Z"/></g><g class="cls-10"><path class="cls-9" d="M16.71,13.07l-2.44,5.1h-.44v-.3l2.29-4.8Z"/></g><g class="cls-10"><path class="cls-9" d="M20.22,13.07v.3l-2.3,4.8h-.37L20,13.07Z"/></g><g class="cls-10"><path class="cls-9" d="M19.67,13.07l-2.44,5.1h-.59l2.44-5.1Z"/></g><path class="cls-6" d="M13.61,18.17h6.72v.32H13.61Z"/><path class="cls-6" d="M7.3,5.48,4.57,10.9H4.32L7,5.48Z"/><path class="cls-6" d="M10,5.48,7.28,10.9H7L9.75,5.48Z"/><path class="cls-6" d="M12.72,5.48,10,10.9H9.73l2.73-5.42Z"/><path class="cls-6" d="M15.43,5.48,12.7,10.9h-.26l2.73-5.42Z"/><path class="cls-6" d="M18.13,5.48,15.41,10.9h-.26l2.73-5.42Z"/><path class="cls-6" d="M20.84,5.48,18.12,10.9h-.26l2.73-5.42Z"/><path class="cls-6" d="M23.55,5.48,20.83,10.9h-.26L23.3,5.48Z"/><path class="cls-6" d="M26.26,5.48,25,8.08l-.43.37,1.49-3Z"/><path class="cls-6" d="M29,5.48l-.38.76-.44.36.57-1.12Z"/><path class="cls-6" d="M31.68,5.48l-.38.76-.18-.15.31-.61Z"/><path class="cls-6" d="M34.39,5.48,33.63,7l-.42.84L33,7.68l.42-.83.68-1.37Z"/><path class="cls-6" d="M36.77,6.1,35.54,8.56l-.42.83-.18-.15.42-.83,1.28-2.54Z"/><path class="cls-6" d="M38.25,8.59,37.09,10.9h-.26l1.28-2.54Z"/><path class="cls-12" d="M37.79,32.91v.44H27.05v-.44h.22V26.73H37.68v6.18Z"/><path class="cls-8" d="M27.27,26.73h9.87v6.08H27.27Z"/><path class="cls-9" d="M30.52,26.73H31v6.08h-.44Z"/><path class="cls-9" d="M33.67,26.73h.43v6.08h-.43Z"/><path class="cls-9" d="M37.24,32.91H27.16V26.63H37.24Zm-9.86-.21h9.54V26.84H27.38Z"/><path class="cls-9" d="M27.16,29.66H37V30H27.16Z"/><g class="cls-10"><path class="cls-9" d="M32.84,26.73,29,32.81h-.59l3.81-6.08Z"/></g><g class="cls-10"><path class="cls-9" d="M31.77,26.73,28,32.81h-.69v-.36l3.58-5.72Z"/></g><g class="cls-10"><path class="cls-9" d="M37.14,26.73v.35l-3.59,5.73H33l3.81-6.08Z"/></g><g class="cls-10"><path class="cls-9" d="M36.34,26.73l-3.8,6.08h-.91l3.8-6.08Z"/></g><path class="cls-13" d="M26.94,32.7H37.46v.43H26.94Z"/><path class="cls-5" d="M15.67,32.91v.44H4.93v-.44H5V26.73H15.45v6.18Z"/><path class="cls-8" d="M5.15,26.73H15v6.08H5.15Z"/><path class="cls-9" d="M8.3,26.73h.43v6.08H8.3Z"/><path class="cls-9" d="M11.55,26.73H12v6.08h-.43Z"/><path class="cls-9" d="M15,32.91H4.93V26.63H15ZM5.26,32.7H14.8V26.84H5.26Z"/><path class="cls-9" d="M4.93,29.66H14.8V30H4.93Z"/><g class="cls-10"><path class="cls-9" d="M10.66,26.73l-3.8,6.08H6.27l3.81-6.08Z"/></g><g class="cls-10"><path class="cls-9" d="M9.65,26.73,5.84,32.81H5.15v-.36l3.59-5.72Z"/></g><g class="cls-10"><path class="cls-9" d="M15,26.73v.35l-3.59,5.73h-.58l3.8-6.08Z"/></g><g class="cls-10"><path class="cls-9" d="M14.17,26.73l-3.81,6.08H9.45l3.81-6.08Z"/></g><path class="cls-13" d="M4.72,32.7H15.23v.43H4.72Z"/><path class="cls-7" d="M37.57,10.86V12L29.93,5.62,22.28,12V10.86l7.65-6.37Z"/><path class="cls-6" d="M3.2,11.77H22.28v.54H3.2Z"/><path class="cls-6" d="M37.57,11.77H39.3v.54H37.57Z"/><path class="cls-5" d="M2.12,23.48H3.74V24H2.12Z"/><path class="cls-14" d="M38.37,12.11l-8.43-7-8.42,7-.59-.7,9-7.52,9,7.52Z"/><path class="cls-11" d="M24.78,17.19h10v.44h-10Z"/><path class="cls-14" d="M17.51,24.67h6.94V36.82H17.51Z"/><path class="cls-11" d="M18.05,25.43h5.86V36.17H18.05Z"/><path class="cls-4" d="M20.44,31.29h-1.3V27.05a.42.42,0,0,1,.43-.42H20a.42.42,0,0,1,.43.42Z"/><path class="cls-4" d="M23,31.29h-1.3V27.05a.42.42,0,0,1,.43-.42h.44a.42.42,0,0,1,.43.42Z"/><path class="cls-3" d="M19,33h1.41V35.3H19Z"/><path class="cls-3" d="M21.63,33H23V35.3H21.63Z"/></g></g></svg>