<svg xmlns="http://www.w3.org/2000/svg" viewBox="0 0 34.38 31.96"><defs><style>.cls-1{fill:#e6e6e6;}.cls-2{fill:#b3b3b3;}.cls-3{fill:#ccc;}.cls-4{fill:#2d5871;}.cls-5{fill:gray;}.cls-6{fill:#1d4859;}.cls-7{fill:#999;}.cls-8{fill:#fff;}</style></defs><g id="Layer_2" data-name="Layer 2"><g id="Layer_1-2" data-name="Layer 1"><polygon class="cls-1" points="29.01 9.35 16.6 1.09 4.19 9.35 4.19 30.62 29.01 30.62 29.01 9.35 29.01 9.35"/><polygon class="cls-1" points="29.01 9.35 16.6 0.98 14.06 2.7 25.91 10.69 25.93 10.69 25.93 30.62 29.01 30.62 29.01 9.35 29.01 9.35"/><path class="cls-2" d="M1.89,12.65,16.41,3a.4.4,0,0,1,.42,0l14.52,9.66a1.23,1.23,0,0,0,1.35,0h0a1.22,1.22,0,0,0,0-2L16.83.06a.4.4,0,0,0-.42,0L.54,10.62a1.22,1.22,0,0,0,0,2h0A1.23,1.23,0,0,0,1.89,12.65Z"/><circle class="cls-3" cx="16.62" cy="8.87" r="2.68"/><path class="cls-2" d="M19.3,8.85a2.76,2.76,0,0,0-.05-.51H17.14V6.21a2.85,2.85,0,0,0-.51,0,2.74,2.74,0,0,0-.5,0V8.34H14a2.78,2.78,0,0,0,0,.51,2.81,2.81,0,0,0,0,.5h2.12v2.11a2.07,2.07,0,0,0,.5,0,2.15,2.15,0,0,0,.51,0V9.35h2.11A2.83,2.83,0,0,0,19.3,8.85Z"/><rect class="cls-3" x="12.31" y="19.01" width="8.59" height="12.95"/><rect class="cls-2" x="16.6" y="19.01" width="4.29" height="12.95"/><path class="cls-4" d="M31.48,29.88H1.77a1,1,0,0,0-1,1h0a1,1,0,0,0,1,1H31.48a1,1,0,0,0,1-1h0A1,1,0,0,0,31.48,29.88Z"/><path class="cls-5" d="M33.17,12a.14.14,0,0,0,0-.07,0,0,0,0,0,0,0,.25.25,0,0,0,0-.07s0,0,0,0,0-.06,0-.09V11.5a.17.17,0,0,0,0-.07v0s0-.05,0-.08v0s0,0,0-.07l0,0,0-.08v0a.25.25,0,0,1,0-.07h0a1.27,1.27,0,0,0-.36-.37L31.11,9.56l-.17.28a1,1,0,0,1-1.43.29L16.83,1.69a.4.4,0,0,0-.42,0L1.89,11.35a1.23,1.23,0,0,1-1.35,0h0A1.09,1.09,0,0,1,.19,11a1.21,1.21,0,0,0,.36,1.66,1.24,1.24,0,0,0,1.37,0L16.41,3a.4.4,0,0,1,.42,0l14.52,9.66a1.23,1.23,0,0,0,1.35,0l.09-.07,0,0,0-.05,0,0,.06-.07h0a1.88,1.88,0,0,0,.16-.23h0v0l0-.06Z"/><path class="cls-6" d="M32.49,30.79v0s0-.06,0-.09v0l0-.09h0s0-.1,0-.1h0a1,1,0,0,0-.93-.58H29.42v.46s-.34.7-.72.68H1.77a1,1,0,0,1-.92-.56A1,1,0,0,0,.76,31a1,1,0,0,0,1,.86H31.48a1,1,0,0,0,1-1S32.49,30.83,32.49,30.79Z"/><path class="cls-3" d="M23.24,32H20.49V12.9a1.37,1.37,0,0,1,1.38-1.37h0a1.37,1.37,0,0,1,1.37,1.37V32Z"/><path class="cls-1" d="M21.83,11.53h0a1.3,1.3,0,0,0-.67.19,1.35,1.35,0,0,1,.67,1.18V32h1.35V12.9A1.36,1.36,0,0,0,21.83,11.53Z"/><path class="cls-7" d="M33.52,25.18H10.21a.86.86,0,0,1-.86-.85V15.44a.86.86,0,0,1,.86-.86H33.52a.85.85,0,0,1,.86.86v8.89A.85.85,0,0,1,33.52,25.18Z"/><path class="cls-5" d="M33.52,14.58H31.23V23a.86.86,0,0,1-.86.86H9.29v.49a.85.85,0,0,0,.85.85H33.52a.85.85,0,0,0,.86-.85V15.44A.85.85,0,0,0,33.52,14.58Z"/><path class="cls-8" d="M16.08,20.14a1.39,1.39,0,0,0,1-1.47c0-1.17-.77-1.54-1.72-1.54H13.88a.29.29,0,0,0-.3.29V22.2c0,.2.24.3.47.3s.47-.1.47-.3V20.28h.61l1,2a.38.38,0,0,0,.33.23.61.61,0,0,0,.58-.5.19.19,0,0,0,0-.12Zm-.76-.59h-.8V18h.8a.68.68,0,0,1,.77.78A.67.67,0,0,1,15.32,19.55Z"/><path class="cls-8" d="M20.93,18c.18,0,.29-.19.29-.41s-.09-.39-.29-.39H18.35c-.21,0-.41.1-.41.29v4.72c0,.19.2.29.41.29h2.58c.2,0,.29-.21.29-.4s-.11-.41-.29-.41H18.88V20.22H20a.33.33,0,0,0,.3-.36c0-.2-.11-.38-.3-.38h-1.1V18Z"/><path class="cls-8" d="M25,17.17c-.24,0-.47.09-.47.29v3L23.1,17.67c-.23-.44-.37-.51-.72-.51s-.48.09-.48.3v4.76c0,.21.25.32.5.32s.51-.11.51-.32V19.31l1.54,2.89a.56.56,0,0,0,.54.29c.23,0,.47-.1.47-.29V17.46C25.46,17.26,25.22,17.17,25,17.17Z"/><path class="cls-8" d="M29.41,17.13h-2.8a.44.44,0,0,0-.43.4c0,.25.1.47.3.47h1.06v4.28c0,.2.23.3.47.3s.47-.1.47-.3V18h1.05c.21,0,.32-.24.3-.5A.43.43,0,0,0,29.41,17.13Z"/></g></g></svg>