<svg xmlns="http://www.w3.org/2000/svg" viewBox="0 0 32 31.82"><defs><style>.cls-1{fill:#ccc;}.cls-2{fill:#b3b3b3;}.cls-3{fill:#e6e6e6;}.cls-4{fill:gray;}.cls-5{fill:#d7f8f9;}.cls-6{fill:#666;}.cls-7{fill:#999;}</style></defs><g id="Layer_2" data-name="Layer 2"><g id="Layer_1-2" data-name="Layer 1"><path class="cls-1" d="M29.69,7.56V20.39H14.35l-1-6.82,1-6.27,4-3.29h5.1Z"/><path class="cls-2" d="M3.06,20.39H6.25v9.18H3.06Z"/><path class="cls-2" d="M11.12,20.39h3.19v9.18H11.12Z"/><path class="cls-2" d="M26.5,20.39h3.19v9.18H26.5Z"/><path class="cls-3" d="M3.06,7.3V20.39H14.38V7.3L8.72,2.37Z"/><path class="cls-4" d="M9.73,12H7.65a1.4,1.4,0,0,0-1.4,1.4v7h4.87v-7A1.38,1.38,0,0,0,9.73,12Z"/><path class="cls-5" d="M0,26.18a5.11,5.11,0,0,1,4.63,0,5,5,0,0,0,4.51,0,5.1,5.1,0,0,1,4.57,0,5.19,5.19,0,0,0,4.58,0,5.1,5.1,0,0,1,4.57,0,5,5,0,0,0,4.51,0,5.11,5.11,0,0,1,4.63,0v5.64H0Z"/><path class="cls-4" d="M26.5,20.39h3.19V24.2H26.5Z"/><path class="cls-4" d="M11.12,20.39h3.19V24.2H11.12Z"/><path class="cls-4" d="M3.06,20.39H6.25V24.2H3.06Z"/><path class="cls-1" d="M4.67,11.68a25.83,25.83,0,0,1,.7-6.39l-2.31,2V20.39H7.4a15.28,15.28,0,0,1-2.73-8.71Z"/><path class="cls-6" d="M1.29,18.45A1.28,1.28,0,0,0,0,19.73V21a1.29,1.29,0,0,0,1.29,1.29H30.71A1.29,1.29,0,0,0,32,21V19.74a1.29,1.29,0,0,0-1.29-1.29Z"/><path class="cls-4" d="M9.9.45H22.24a5.5,5.5,0,0,1,3.53,1.29l4.65,3.91a1.09,1.09,0,0,1-.7,1.92H16.94L14.33,7.3Z"/><path class="cls-7" d="M14.35,9.22,8.69,4.46,3,9.22a.92.92,0,0,1-1.29-.11L.44,7.56a.92.92,0,0,1,.11-1.3L7.45.45a2,2,0,0,1,2.49,0l6.9,5.81A.92.92,0,0,1,17,7.56L15.64,9.11a.92.92,0,0,1-1.29.11Z"/><path class="cls-6" d="M7.88.18a1.94,1.94,0,0,0-.43.27L.55,6.26a.92.92,0,0,0-.11,1.3l1.3,1.55A.92.92,0,0,0,3,9.22L4.88,7.66A13.93,13.93,0,0,1,7.88.18Z"/></g></g></svg>